<?xml version="1.0" standalone="no"?>
<!DOCTYPE svg PUBLIC "-//W3C//DTD SVG 20010904//EN"
 "http://www.w3.org/TR/2001/REC-SVG-20010904/DTD/svg10.dtd">
<svg version="1.0" xmlns="http://www.w3.org/2000/svg"
 width="500.000000pt" height="500.000000pt" viewBox="0 0 500.000000 500.000000"
 preserveAspectRatio="xMidYMid meet">
<metadata>
Created by potrace 1.11, written by Peter Selinger 2001-2013
</metadata>
<g transform="translate(0.000000,500.000000) scale(0.100000,-0.100000)"
fill="#000000" stroke="none">
<path d="M2395 4975 c-11 -8 -78 -30 -150 -50 -390 -109 -524 -185 -669 -379
-43 -58 -47 -40 -12 46 l24 57 -62 -55 c-33 -31 -142 -117 -241 -192 -291
-220 -424 -360 -511 -537 -72 -145 -87 -221 -87 -415 0 -111 5 -190 15 -240
18 -86 3 -77 -33 19 -47 127 -65 279 -46 411 l7 55 -25 -30 c-159 -186 -209
-478 -120 -698 l24 -57 -42 24 c-23 13 -53 27 -67 31 -19 6 -15 0 16 -23 61
-45 94 -107 107 -204 5 -35 3 -39 -29 -54 -81 -38 -143 -154 -150 -279 l-4
-70 20 63 c22 66 77 134 118 144 18 5 17 1 -10 -25 -116 -116 -139 -394 -58
-687 24 -82 93 -257 139 -349 l30 -59 103 32 103 32 7 76 c4 42 23 143 42 225
51 218 56 252 56 412 0 172 15 255 65 359 96 203 293 292 650 292 252 0 453
-20 875 -86 145 -23 446 -23 605 0 66 9 228 40 360 69 209 45 255 51 355 52
93 0 122 -4 153 -19 92 -45 117 -126 117 -372 0 -204 8 -255 95 -614 35 -146
69 -293 75 -326 l12 -61 102 -32 c56 -17 107 -31 113 -31 16 0 86 186 123 323
57 216 81 446 60 582 -23 155 -92 301 -193 411 l-51 57 51 -27 c62 -31 115
-76 156 -131 l29 -40 -6 40 c-14 84 -37 145 -77 205 -40 59 -119 129 -146 130
-20 0 -16 9 17 37 48 40 81 105 86 170 5 54 4 57 -11 38 -38 -48 -67 -74 -95
-83 -16 -6 -30 -9 -30 -8 0 2 6 19 14 38 26 61 38 192 26 272 -13 88 -58 184
-108 227 l-37 33 -3 -45 c-2 -24 -7 -47 -11 -52 -4 -4 -27 44 -50 105 -116
301 -251 481 -422 567 -103 52 -123 52 -71 1 60 -58 109 -137 127 -204 8 -33
13 -61 12 -63 -2 -2 -19 18 -37 45 -159 224 -459 424 -805 535 -101 32 -353
92 -342 80 3 -2 20 -13 39 -22 43 -24 60 -67 33 -87 -27 -20 -52 -17 -111 10
-65 30 -146 113 -181 185 -24 48 -28 68 -28 143 0 49 -2 88 -5 87 -3 0 -14 -6
-25 -14z"/>
<path d="M1155 1485 c-125 -17 -199 -38 -350 -100 -71 -29 -191 -72 -265 -94
-201 -61 -180 -40 -180 -180 0 -83 4 -121 13 -128 6 -6 35 -16 62 -22 67 -17
118 -47 139 -82 9 -15 41 -100 71 -188 60 -176 103 -270 160 -346 77 -102 210
-189 341 -222 96 -24 426 -24 534 0 146 33 291 125 377 240 63 85 143 256 193
416 l43 133 -17 53 c-25 81 -22 119 14 149 44 36 101 50 210 50 113 0 173 -15
212 -54 33 -33 35 -61 11 -137 -16 -52 -16 -54 11 -150 35 -124 105 -295 158
-387 89 -154 249 -272 425 -313 98 -22 423 -26 518 -5 110 25 219 85 305 170
92 92 143 187 215 405 63 192 75 213 138 243 29 13 68 27 87 30 58 11 60 15
60 145 0 139 18 120 -165 175 -66 19 -187 62 -270 95 -260 102 -396 125 -690
116 -271 -9 -428 -50 -616 -163 -48 -30 -95 -54 -102 -54 -8 0 -36 10 -63 22
-45 21 -63 23 -239 23 -177 0 -193 -2 -233 -23 -23 -12 -49 -22 -58 -22 -8 0
-55 24 -104 54 -198 119 -399 167 -695 165 -88 -1 -200 -7 -250 -14z m535
-151 c241 -41 356 -117 401 -264 19 -64 21 -87 16 -213 -6 -162 -20 -224 -78
-345 -70 -146 -181 -233 -359 -281 -215 -59 -475 -38 -642 51 -184 98 -289
371 -258 675 27 260 151 361 486 393 112 11 323 3 434 -16z m2167 0 c196 -33
294 -102 346 -240 20 -53 22 -78 22 -239 0 -161 -2 -188 -23 -255 -67 -213
-168 -316 -363 -370 -280 -76 -615 -16 -770 140 -212 211 -251 706 -68 851
147 116 538 168 856 113z"/>
<path d="M1641 994 c-134 -67 -159 -237 -51 -344 139 -140 369 -46 370 152 0
31 -4 59 -9 62 -5 4 -24 -6 -42 -21 -26 -22 -33 -25 -37 -13 -10 29 -80 90
-111 96 -34 7 -37 17 -16 54 8 14 14 28 15 33 0 16 -70 5 -119 -19z"/>
<path d="M3194 1009 c-3 -6 7 -24 22 -41 21 -22 25 -32 16 -35 -32 -12 -82
-67 -98 -108 l-16 -44 -41 20 -40 21 5 -52 c17 -172 234 -247 366 -126 76 68
87 199 25 288 -34 51 -111 88 -179 88 -29 0 -56 -5 -60 -11z"/>
</g>
</svg>
